# xmcd CD database file
#
# Track frame offsets:
#	150
#	27892
#	56205
#	82495
#	107645
#	126765
#
# Disc length: 2057 seconds
#
# Revision: 0
# Processed by: cddbd v1.5.1PL0 Copyright (c) Steve Scherf et al.
# Submitted via: CDex 1.51
#
DISCID=51080706
DTITLE=Members Only - Members Only
DYEAR=1987
DGENRE=Jazz
TTITLE0=Love Will Conquer All
TTITLE1=Caught Up In the Rapture
TTITLE2=Jimmy Lee
TTITLE3=Just Fine
TTITLE4=Overjoyed
TTITLE5=Word Up!
EXTD=YEAR: 1987
EXTT0=
EXTT1=
EXTT2=
EXTT3=
EXTT4=
EXTT5=
PLAYORDER=
